<svg xmlns="http://www.w3.org/2000/svg"><symbol id="mechastilts" viewBox="0 0 189.9 220.5"><path d="M67.9 135.6h18v11.34h-18zm21.6 0H101v11.34H89.5zm5.8-75.1c-21.1 0-38.7 12.8-39.6 36h79.2c-.9-23.2-18.6-36-39.6-36zm9.3 75.1h18v11.34h-18zm-51.8 0h11.5v11.34H52.8zM42 132h106.5v-31.9H42zm52.4-12.3h43.9a1.8 1.8 0 0 1 0 3.6H94.4a1.8 1.8 0 0 1 0-3.6zm31.8 15.9h11.5v11.34h-11.5z"/><path d="M95.3.3L.3 55.2v109.6l95 54.9 95-54.9V55.2zm56.8 133.5a1.7 1.7 0 0 1-1.8 1.8h-9v11.3h9a1.8 1.8 0 0 1 0 3.6H40.2a1.8 1.8 0 1 1 0-3.6h9v-11.3h-9a1.7 1.7 0 0 1-1.8-1.8V98.3a1.7 1.7 0 0 1 1.8-1.8h11.9c.9-25.6 20-39.6 43.2-39.6s42.3 14 43.2 39.6h11.8a1.7 1.7 0 0 1 1.8 1.8z"/></symbol><symbol id="spacebubbles" viewBox="0 0 189.9 220.5"><path d="M95 .3L0 55.2v109.6l95 54.9 95-54.9V55.2zm57.6 148.2l-4.1 6a2 2 0 0 1-2.4.5l-8.6-4.5H52.3l-8.6 4.5a1.9 1.9 0 0 1-2.3-.5l-4.2-6a2 2 0 0 1 .2-2.1l14.9-17.7H45a1.7 1.7 0 0 1-1.8-1.8V114a1.7 1.7 0 0 1 1.8-1.8h10.4a49.4 49.4 0 0 1-2-13.7 42.6 42.6 0 0 1 85.2 0 45.9 45.9 0 0 1-2 13.7H147a1.7 1.7 0 0 1 1.8 1.8v12.9a1.7 1.7 0 0 1-1.8 1.8h-9.2l14.8 17.7a1.8 1.8 0 0 1 0 2.1z"/><path d="M68.7 128.7H56.8L41 147.4l2.5 3.6 30.4-16-5.2-6.3zm-9.3 18.2h24.4l-7.3-9-17.1 9zm73.4-34.7a45.2 45.2 0 0 0 2.2-13.7 39 39 0 0 0-78 0c0 4.7.4 9.5 2.2 13.7zm-86 3.6h98.5v9.36H46.8zm74.5 12.9l-5.4 6.3 30.6 16 2.5-3.4-15.8-18.9h-11.9zm-15.1 18.2h24.4l-17.1-9-7.3 9zm-32.8-18.2l15.1 18.2h13l15.1-18.2H73.4z"/></symbol><symbol id="superdomes" viewBox="0 0 189.9 220.5"><path d="M44.9 126.9h48.4v19.98H44.9zm46.6-57c-23 1.4-42.3 18.1-47.8 39.9h19.2zm1.8 39.9V73.5l-25.9 36.3h25.9zm3.6-40.1v40.1h49.7a53.5 53.5 0 0 0-49.7-40.1z"/><path d="M95.1.3L.1 55.2v109.6l95 54.9 95-54.9V55.2zm77.6 126.6H149v21.8a1.7 1.7 0 0 1-1.8 1.8H43.1a1.7 1.7 0 0 1-1.8-1.8v-21.8H17.6a1.8 1.8 0 1 1 0-3.6h13.5v-11.7a1.7 1.7 0 0 1 1.8-1.8h7A57 57 0 0 1 95 66.1c.1-.2.3-.2.7 0a56.9 56.9 0 0 1 54.7 43.7h7a1.7 1.7 0 0 1 1.8 1.8v11.7h13.5a1.8 1.8 0 1 1 0 3.6z"/><path d="M34.7 113.4h121v9.9h-121zm62.2 13.5h8.1v19.98h-8.1zm11.7 0h36.7v19.98h-36.7z"/></symbol></svg>